<mxfile host="app.diagrams.net" modified="2023-07-10T15:53:25.668Z" agent="Mozilla/5.0 (Windows NT 10.0; Win64; x64) AppleWebKit/537.36 (KHTML, like Gecko) Chrome/114.0.0.0 Safari/537.36" etag="wOy5BfLucw3YbsosIR4x" version="21.5.2" type="github">
  <diagram name="Página-1" id="0JGuBHXMq3BsniKktKGW">
    <mxGraphModel dx="1674" dy="796" grid="1" gridSize="10" guides="1" tooltips="1" connect="1" arrows="1" fold="1" page="1" pageScale="1" pageWidth="1169" pageHeight="827" math="0" shadow="0">
      <root>
        <mxCell id="0" />
        <mxCell id="1" parent="0" />
        <mxCell id="R_MbE99bcsBZ4gKKlkyz-8" value="Pipeline - Pendentes Online Cremer" style="swimlane;horizontal=0;whiteSpace=wrap;html=1;" vertex="1" parent="1">
          <mxGeometry x="10" y="30" width="1150" height="496" as="geometry" />
        </mxCell>
        <mxCell id="R_MbE99bcsBZ4gKKlkyz-14" value="" style="endArrow=classic;html=1;rounded=0;entryX=0;entryY=0.5;entryDx=0;entryDy=0;" edge="1" parent="R_MbE99bcsBZ4gKKlkyz-8" source="R_MbE99bcsBZ4gKKlkyz-19" target="R_MbE99bcsBZ4gKKlkyz-29">
          <mxGeometry width="50" height="50" relative="1" as="geometry">
            <mxPoint x="170" y="191" as="sourcePoint" />
            <mxPoint x="430" y="171" as="targetPoint" />
          </mxGeometry>
        </mxCell>
        <mxCell id="R_MbE99bcsBZ4gKKlkyz-15" value="&lt;b&gt;Tabelas Extraídas&lt;/b&gt;" style="swimlane;fontStyle=0;childLayout=stackLayout;horizontal=1;startSize=30;horizontalStack=0;resizeParent=1;resizeParentMax=0;resizeLast=0;collapsible=1;marginBottom=0;whiteSpace=wrap;html=1;" vertex="1" parent="R_MbE99bcsBZ4gKKlkyz-8">
          <mxGeometry x="420" y="46" width="140" height="360" as="geometry" />
        </mxCell>
        <mxCell id="R_MbE99bcsBZ4gKKlkyz-16" value="SA1010" style="text;strokeColor=none;fillColor=none;align=left;verticalAlign=middle;spacingLeft=4;spacingRight=4;overflow=hidden;points=[[0,0.5],[1,0.5]];portConstraint=eastwest;rotatable=0;whiteSpace=wrap;html=1;" vertex="1" parent="R_MbE99bcsBZ4gKKlkyz-15">
          <mxGeometry y="30" width="140" height="30" as="geometry" />
        </mxCell>
        <mxCell id="R_MbE99bcsBZ4gKKlkyz-17" value="SC0110" style="text;strokeColor=none;fillColor=none;align=left;verticalAlign=middle;spacingLeft=4;spacingRight=4;overflow=hidden;points=[[0,0.5],[1,0.5]];portConstraint=eastwest;rotatable=0;whiteSpace=wrap;html=1;" vertex="1" parent="R_MbE99bcsBZ4gKKlkyz-15">
          <mxGeometry y="60" width="140" height="30" as="geometry" />
        </mxCell>
        <mxCell id="R_MbE99bcsBZ4gKKlkyz-18" value="SC5110" style="text;strokeColor=none;fillColor=none;align=left;verticalAlign=middle;spacingLeft=4;spacingRight=4;overflow=hidden;points=[[0,0.5],[1,0.5]];portConstraint=eastwest;rotatable=0;whiteSpace=wrap;html=1;" vertex="1" parent="R_MbE99bcsBZ4gKKlkyz-15">
          <mxGeometry y="90" width="140" height="30" as="geometry" />
        </mxCell>
        <mxCell id="R_MbE99bcsBZ4gKKlkyz-27" value="SC6110" style="text;strokeColor=none;fillColor=none;align=left;verticalAlign=middle;spacingLeft=4;spacingRight=4;overflow=hidden;points=[[0,0.5],[1,0.5]];portConstraint=eastwest;rotatable=0;whiteSpace=wrap;html=1;" vertex="1" parent="R_MbE99bcsBZ4gKKlkyz-15">
          <mxGeometry y="120" width="140" height="30" as="geometry" />
        </mxCell>
        <mxCell id="R_MbE99bcsBZ4gKKlkyz-29" value="SD2110" style="text;strokeColor=none;fillColor=none;align=left;verticalAlign=middle;spacingLeft=4;spacingRight=4;overflow=hidden;points=[[0,0.5],[1,0.5]];portConstraint=eastwest;rotatable=0;whiteSpace=wrap;html=1;" vertex="1" parent="R_MbE99bcsBZ4gKKlkyz-15">
          <mxGeometry y="150" width="140" height="30" as="geometry" />
        </mxCell>
        <mxCell id="R_MbE99bcsBZ4gKKlkyz-28" value="SE4010" style="text;strokeColor=none;fillColor=none;align=left;verticalAlign=middle;spacingLeft=4;spacingRight=4;overflow=hidden;points=[[0,0.5],[1,0.5]];portConstraint=eastwest;rotatable=0;whiteSpace=wrap;html=1;" vertex="1" parent="R_MbE99bcsBZ4gKKlkyz-15">
          <mxGeometry y="180" width="140" height="30" as="geometry" />
        </mxCell>
        <mxCell id="R_MbE99bcsBZ4gKKlkyz-26" value="SF2110" style="text;strokeColor=none;fillColor=none;align=left;verticalAlign=middle;spacingLeft=4;spacingRight=4;overflow=hidden;points=[[0,0.5],[1,0.5]];portConstraint=eastwest;rotatable=0;whiteSpace=wrap;html=1;" vertex="1" parent="R_MbE99bcsBZ4gKKlkyz-15">
          <mxGeometry y="210" width="140" height="30" as="geometry" />
        </mxCell>
        <mxCell id="R_MbE99bcsBZ4gKKlkyz-23" value="SX5110" style="text;strokeColor=none;fillColor=none;align=left;verticalAlign=middle;spacingLeft=4;spacingRight=4;overflow=hidden;points=[[0,0.5],[1,0.5]];portConstraint=eastwest;rotatable=0;whiteSpace=wrap;html=1;" vertex="1" parent="R_MbE99bcsBZ4gKKlkyz-15">
          <mxGeometry y="240" width="140" height="30" as="geometry" />
        </mxCell>
        <mxCell id="R_MbE99bcsBZ4gKKlkyz-25" value="ZYX110" style="text;strokeColor=none;fillColor=none;align=left;verticalAlign=middle;spacingLeft=4;spacingRight=4;overflow=hidden;points=[[0,0.5],[1,0.5]];portConstraint=eastwest;rotatable=0;whiteSpace=wrap;html=1;" vertex="1" parent="R_MbE99bcsBZ4gKKlkyz-15">
          <mxGeometry y="270" width="140" height="30" as="geometry" />
        </mxCell>
        <mxCell id="R_MbE99bcsBZ4gKKlkyz-24" value="ZZ2110" style="text;strokeColor=none;fillColor=none;align=left;verticalAlign=middle;spacingLeft=4;spacingRight=4;overflow=hidden;points=[[0,0.5],[1,0.5]];portConstraint=eastwest;rotatable=0;whiteSpace=wrap;html=1;" vertex="1" parent="R_MbE99bcsBZ4gKKlkyz-15">
          <mxGeometry y="300" width="140" height="30" as="geometry" />
        </mxCell>
        <mxCell id="R_MbE99bcsBZ4gKKlkyz-22" value="ZZ3110" style="text;strokeColor=none;fillColor=none;align=left;verticalAlign=middle;spacingLeft=4;spacingRight=4;overflow=hidden;points=[[0,0.5],[1,0.5]];portConstraint=eastwest;rotatable=0;whiteSpace=wrap;html=1;" vertex="1" parent="R_MbE99bcsBZ4gKKlkyz-15">
          <mxGeometry y="330" width="140" height="30" as="geometry" />
        </mxCell>
        <mxCell id="R_MbE99bcsBZ4gKKlkyz-4" value="" style="sketch=0;pointerEvents=1;shadow=0;dashed=0;html=1;strokeColor=none;fillColor=#505050;labelPosition=center;verticalLabelPosition=bottom;verticalAlign=top;outlineConnect=0;align=center;shape=mxgraph.office.concepts.clock;" vertex="1" parent="R_MbE99bcsBZ4gKKlkyz-8">
          <mxGeometry x="262.5" y="151" width="45" height="45" as="geometry" />
        </mxCell>
        <mxCell id="R_MbE99bcsBZ4gKKlkyz-19" value="A cada 1h" style="text;html=1;strokeColor=none;fillColor=none;align=center;verticalAlign=middle;whiteSpace=wrap;rounded=0;" vertex="1" parent="R_MbE99bcsBZ4gKKlkyz-8">
          <mxGeometry x="262.5" y="196" width="60" height="30" as="geometry" />
        </mxCell>
        <mxCell id="R_MbE99bcsBZ4gKKlkyz-20" value="" style="endArrow=classic;html=1;rounded=0;" edge="1" parent="R_MbE99bcsBZ4gKKlkyz-8" source="R_MbE99bcsBZ4gKKlkyz-3" target="R_MbE99bcsBZ4gKKlkyz-19">
          <mxGeometry width="50" height="50" relative="1" as="geometry">
            <mxPoint x="190" y="197" as="sourcePoint" />
            <mxPoint x="440" y="197" as="targetPoint" />
          </mxGeometry>
        </mxCell>
        <mxCell id="R_MbE99bcsBZ4gKKlkyz-6" value="" style="group" vertex="1" connectable="0" parent="R_MbE99bcsBZ4gKKlkyz-8">
          <mxGeometry x="40" y="172.4" width="140" height="151.2" as="geometry" />
        </mxCell>
        <mxCell id="R_MbE99bcsBZ4gKKlkyz-5" value="" style="shape=image;verticalLabelPosition=bottom;labelBackgroundColor=transparent;verticalAlign=top;aspect=fixed;imageAspect=0;image=https://www.hfbr.com.br/wp-content/uploads/2020/01/totvs-protheus.png;" vertex="1" parent="R_MbE99bcsBZ4gKKlkyz-6">
          <mxGeometry y="60" width="120" height="91.2" as="geometry" />
        </mxCell>
        <mxCell id="R_MbE99bcsBZ4gKKlkyz-3" value="" style="sketch=0;shadow=0;dashed=0;html=1;strokeColor=none;fillColor=#505050;labelPosition=center;verticalLabelPosition=bottom;verticalAlign=top;outlineConnect=0;align=center;shape=mxgraph.office.databases.database_mini_2;" vertex="1" parent="R_MbE99bcsBZ4gKKlkyz-6">
          <mxGeometry x="60" width="80" height="82" as="geometry" />
        </mxCell>
        <mxCell id="R_MbE99bcsBZ4gKKlkyz-7" value="&lt;b&gt;BD Produção&lt;/b&gt;" style="text;html=1;strokeColor=none;fillColor=none;align=center;verticalAlign=middle;whiteSpace=wrap;rounded=0;" vertex="1" parent="R_MbE99bcsBZ4gKKlkyz-6">
          <mxGeometry x="60" y="-30" width="80" height="30" as="geometry" />
        </mxCell>
        <mxCell id="R_MbE99bcsBZ4gKKlkyz-33" value="" style="endArrow=classic;html=1;rounded=0;exitX=1;exitY=0.5;exitDx=0;exitDy=0;" edge="1" parent="R_MbE99bcsBZ4gKKlkyz-8" source="R_MbE99bcsBZ4gKKlkyz-29" target="R_MbE99bcsBZ4gKKlkyz-31">
          <mxGeometry width="50" height="50" relative="1" as="geometry">
            <mxPoint x="640" y="236" as="sourcePoint" />
            <mxPoint x="690" y="186" as="targetPoint" />
          </mxGeometry>
        </mxCell>
        <mxCell id="R_MbE99bcsBZ4gKKlkyz-32" value="" style="group" vertex="1" connectable="0" parent="R_MbE99bcsBZ4gKKlkyz-8">
          <mxGeometry x="690" y="172.4" width="106" height="108.4" as="geometry" />
        </mxCell>
        <mxCell id="R_MbE99bcsBZ4gKKlkyz-31" value="" style="sketch=0;pointerEvents=1;shadow=0;dashed=0;html=1;strokeColor=none;labelPosition=center;verticalLabelPosition=bottom;verticalAlign=top;outlineConnect=0;align=center;shape=mxgraph.office.concepts.folder;fillColor=#2072B8;" vertex="1" parent="R_MbE99bcsBZ4gKKlkyz-32">
          <mxGeometry width="78.89" height="71" as="geometry" />
        </mxCell>
        <mxCell id="R_MbE99bcsBZ4gKKlkyz-30" value="" style="shape=image;verticalLabelPosition=bottom;labelBackgroundColor=default;verticalAlign=top;aspect=fixed;imageAspect=0;image=https://www.file-extension.info/images/resource/formats/qvd.png;" vertex="1" parent="R_MbE99bcsBZ4gKKlkyz-32">
          <mxGeometry x="40" y="42.400000000000006" width="66" height="66" as="geometry" />
        </mxCell>
        <mxCell id="R_MbE99bcsBZ4gKKlkyz-35" value="" style="shape=image;verticalLabelPosition=bottom;labelBackgroundColor=default;verticalAlign=top;aspect=fixed;imageAspect=0;image=data:image/png,iVBORw0KGgoAAAANSUhEUgAAAOEAAADhCAMAAAAJbSJIAAAAsVBMVEX///8AmEhUVlsAlkQAkTYAlD4AkjkAlUEAkDMAlD1JS1FOUFVRU1j5/fsAjzDd7+RERkyt1rzP6Nnm9Ox9wJaTyqfi8ejA4MwTnFDV694xo1/I5NNBqGmk0rVzvI7v+PNltoNMrHGqq60gn1bi4uOam55eYGX29vdasXuIxZ9ds36azq6n1Li42sSEw5y3uLlpa2/Pz9B6e39xc3eIiYzV1da/wMGTlJfr6+ttb3Nut4dKJ/61AAAM30lEQVR4nO1daXfiuBJtR7JsA2YJENawtLMTsk06neH//7BnQhYSJPuWVCzzju+HmT5zpkEXlWpX6devAgUKFChQoECBAgUKFChQYKeI37HvdXBjXOuctkdX02Hi+VEoo0B0+9Ob1qxxfLLvpTkj7jVaQxVKFflBIFJ4K6R/CoJIybCaLNqd8b6XaYnxvNX3pQo+WOkhlkS70/bxvpdLxfF1Us0jt0ZTRFJNZ7V9rxpF3FkI6aPsvmj6stsa7HvxAAajSAVUdh8kA+ldH/ZONtuetKX3uZP9xsFak+OJhXBqSKpodJAbOe+Hbtu3hiCcHtyJbHQlw/Z9QYTDgzIgDU+x8nvn2Ns3rw/ME35+bxzlTXPf3Jbo9Xnlcx1BtbV3vRovtsdvCV809kvw1Pe3yc9biupwj6LaHKot81siUKf7IjjbjoLZhJzuJcDazQauEESd3ROcW/vXVghHuyY4qu6SXwo/2anCiXcooR8Q/g4ltebtVEI/UG3vimBnu0beDHmzG4Kn4X74pfCHu3DirvdHMDUbyfYt40jukWCqb7xtZ5H3THCZ49huhmOxeyuxQTHaJsXR/gkuo43tUWztW0RXENG2zuJsn1p0HUJsR6POD4VgSrG7DbvYOwwRXSHo8xMcw5WkncDnd+D6B0XQ89Q1M8FJ5LYgEfhKSRn5yz+EUinfVSbCOSvBWwctI1JK/rR1Oh/UxuNxHKf/qA3m7UUShngRVQNWs1iz1jKBUkNjpf5k3upL63SW6DIy7NqtIlDRZJ5jupq3w9CSpD9hIziyOYQikldY3mGckrRKLMtbJoIDi0MolNcmOB4nLWXDUfJkp2JB7zqQCbXcELcjOkfBY/gn5G9WXRtNHrfpRRA1YyDYocqofZ0hblWp4lJ1l9PYo32pCCcOjn+NmogVQ2eGdzTJ8YVj3nZG3EbpWl88oWXvw4nj96UGsk+zTb5jIDWl/KJCsviKI9LJj+6cvoykZoIuU3ZhTkqquxlFirsW8SWkSYWRYOLwTacEzaZcvugnxn2CggsdggyCpZBux2EDQ5xiYB/vE7ZQcofcv6Y4xar1JuIOKfcOLoHvovVJbMBbqLZSZR/C6kZaKvEE3UL/ipcafQEtq88foKmLAPcNX1/Pzl4v0f8bz2AqK0OFujNQjv3yz/3fh3L9HUdP5y9nwBJ6qMNhFc7A2SeZ2wZ6+fJUqpfKlaMPVCrlUv3i75/cRdyCi7AKhVvgOZd5Qejjc730Re4LlXK9fP6a85fR8Dv/Z95ADH50MM3+nJeLellD7x3l+lOOtIJ+Y0DX5nPQVESZh/Dxoq7bvm8cnzP3EU2DSTJDUM9kxkuvT3n8Vhx/Zy1kgQmTokbeTeyIZyYR7ksZ8rmO0kPGNsaYPiD7NadYoK0ynInnOsYvRaV+b/4c0LUKiCZxCAlphi9xeQFu4Ar1v+a1YIU9SbuDMsbSM+YcyVkZOIHfJPXJuBhM2QQ0zw2TjMjYLHimtYCZKP9rXA2k9YRHYngFHW/jFloQTCn+Y1rNMbSJtAADO4WmqPeVKqIrmAUV0gqKUonC+i6kydhfWBFMKZoMYwdZD8lezBBbESwMf/uZpEXXUX80fCTiu5FqwtDRlobrcy+4HdxA2RA7thHHJiQkThFbYfrJLh0IHpUNRxGyXgrPuEOhoW8wFfYyuoRJThFd4+PpMCiuCPXK+Y/LFqb+25F+SbfAkgiVtmtA6k1R9YOlHv2AQZ82kR89gBkiisZgDB/dtvDIqGwQMVWwqkF0s0GT/uu4hekm6sMMRJsq1PmOEUUTav/qmfMWpkdR+8nHwKIiNOOGeDRCn57566RIVzCoU+AgwsmaDvBhhmPIQPCo/Kz9aOAgCjT3jvhs+rTIY4mBoUHXtPIPokhAhkimVF9a5hBSk5giISuacFsADIU2NGQheFQ+1302oh1CsJUHkXitvX9l0KQpKhe6Dx8jewhmvoGiVqA90y8sxzAVU+1BBCQLNYjAR+lV6TmPlB7VtZl+4IdHowtAHCJtOebJ2aFZofSi+3TAl0RNPsBQabvJbLMXGwy13jegAE0R3Q/ECEOtOeThZ1KmgBEz5sYsGOqO9CXTMTR4NUBMB8bAiFpWusjikkmVGnIZQHQRbJsh1x5WtAwBZxLM7O9fSu0ZYsGFNUM+TaM9h4iUgtUZhKHWtHJZi7K21ManaSD3SFsjcM1CfTLU2kM+a4H0XG7Zp9GmaiZ8DIGaq14c2PxSbSsRsizwgskVEFtom1bZYgtt4wIgWnpnchOjfHHQx4ccmbYltNk2pIUJbTlBUt6eNsbn2UO9sTgBYnxTOewnoIyINk/zxHIQ9cETUkxBL84i2US9PPAcRP0xRJLeIdhTgxTX9JEYi+9d0XcsQM0TGEHIbTMkXzksoqFwAahSvLyG9FfrU5PupSdTHuoE6DjBexWQ6pohcee+h4ak/i2QiNd7Wjog5sLQD3XvfBL1iTboGOKFfMRcmGTe1V4YehWgHky8KwrqVDD0C7luot5UQBaMUOX+hfSRmXKTbkGiPs0GBRakO8FI0dzUquDUjFGp6Kv4UFkajZ2WgK43m679nTvIqamdBuoGpbR6Q1JvbBC2l9OSQUax5kS0trYEklA0d1ZbF9nKD4b1QLeDaPdmoNZqY0OnpWdjOoSYniFeYIMOornv+N6GYqVkupPQhLrOaTcuoIOYkTT4TadYKRnvBwFJhxSSdB0hhjqrM5rHybuYQRC73aIvS5uBXQrKuPb3glwI+kL5yHxt5gbaQjQL9QHwzkzGRZU/ZYKLWnoyXyzFOvXNXecGgPee/IxSyOU/qKRWMu92YVdmDG1ozp/rVbP6O+6zrh6ubeBF1h3EGXbtiSqksJhmN8hfPuefxrIha/EOUJi8Kvmu8xi82ZhjZ8/+ydzHSql+nn21ewpezrOYHIFpsPTHyzG0Z39LpjtC5frR75yr66CMUm+uvQG6p+ItZz7mKbHL+4dvN7lXu1culZ5NF0g+gQ5NtZswiA42QQYOvL78fSjVS6VSuZwyK5XqlaffufQIIwfwHNQ62ui8pghszT17fPm9xP3Ln7xL6u+AJ2PQPLYPjOGBl7lX8i1xg043sZyLgcUsbwi38mTRHT5bxXJUVA0fg8U8EPYNbViG7CdFEUaZhewPiLQJv6/1jDHQ5119C7OgXuNjb12GfVHm0VVZ1c2CMNfXZWBbjzJTMGQchjUljFHLim/ygd3pfoe6YhpJN04o4yizZ4/kAWkPWPs1uywDqDukGdjK8QUh4KbKGgTH7GLamFbnmdfgZJFPyBvHhxlqCW24p3Q2Uw3isPIgcDEbcSukDWilZth0wKacrEH2rV9InQvqrGRKrcKEJnmatwhvrJyMY/qLpiyzoOEwew1BdULWqoMhUUA9tnnedDldcpRXpLzC3OpFWm1DvQWaVm9bBLLbBt2pXiuyezyAPP7KBMs3dISvhqe5JHvtxP49drbXO8GJYhqSUZi0TM9bpMavMfFCp/fYq1zvzDq8MpPupOpOrufH6zzHtUHjbiik0yMlb5CWCYyfwMreZpaBr2Toe0l/Op0OEy96e2mG520exTQ81eaNiw2IDzB81hf8Ps8LXgfzJNkmAo/nTZ2DeDdPD8GUJbpyfPJpmwh5Uij4bObdI2RRqXH/gCkqlofYDppi1OfIEh00xaDL8TZSTHmzYNcQkUWZdBPDA9aoosryiNfV4drFVKWyvGBASbjvHHLCQbFNez9ot+B5C4b20s2OwaNSa91DVqm+dTZzDfHVrg+jwMNJ4fyO1xtm9NyfC/z+rIt7G6FjtWaFnrc7SRXhiPZCkjTNxyUhXuxqG4NgFf8RTDHT81odcpnBBiL8rLy28ERD0OXJbVBLRRaIvLUA/hSnKOw7NL6hl2zXiRNh65u4DfDkeJXpnbtfM4sXUnF+w59JpiaqUm36MQ0Yt+yz8tn8lKdptYqx6CbkSoa/obmo8nMUKjAscgJ4G4opFf6J2hXzPgolzOmz/NytT+7cz0dvUmVK0y/5yW5mLJvn+sODTGkYt7s8MYcvp3kZ3pPMRy6hV8Ts0BlWI0eSQskWkKTPTBhZPG+Fo9lOHAqCIpJTtFN1YjTE/J2gP9C786QNyUDJ4YwgXtcGfSNZAosc1GZDSaoPCl8GNw3i6WloXUa0r94Z485dopSfX+MV6d4F05nN0elpKpGExxgZMO7MFn0VqsjfrIqm/+WtMBwMRw3r8t9mm6bosj1KjKM2mN1Nk26qRVIopZb/igIvmY7ajWNHtR7/bLW17drnQDxuntR6g87guHfSHLP90t9DxpDP3T4crD9zyetuHwyOPz0pdnf7UNBMVi7cNtztA8FK34hkD2p0ZxjJ1GnYmrt9EJiFVaZOzINF7//RThQoUKBAgQIFChQo8J/C/wBaGwJAMLOeGwAAAABJRU5ErkJggg==;" vertex="1" parent="R_MbE99bcsBZ4gKKlkyz-8">
          <mxGeometry x="940" y="148.5" width="125" height="125" as="geometry" />
        </mxCell>
        <mxCell id="R_MbE99bcsBZ4gKKlkyz-36" value="" style="endArrow=classic;html=1;rounded=0;" edge="1" parent="R_MbE99bcsBZ4gKKlkyz-8" source="R_MbE99bcsBZ4gKKlkyz-31" target="R_MbE99bcsBZ4gKKlkyz-35">
          <mxGeometry width="50" height="50" relative="1" as="geometry">
            <mxPoint x="790" y="210" as="sourcePoint" />
            <mxPoint x="940" y="210" as="targetPoint" />
          </mxGeometry>
        </mxCell>
        <mxCell id="R_MbE99bcsBZ4gKKlkyz-37" value="&lt;h1&gt;Pendentes Online&lt;/h1&gt;" style="text;html=1;strokeColor=none;fillColor=none;spacing=5;spacingTop=-20;whiteSpace=wrap;overflow=hidden;rounded=0;" vertex="1" parent="R_MbE99bcsBZ4gKKlkyz-8">
          <mxGeometry x="40" y="10" width="230" height="50" as="geometry" />
        </mxCell>
      </root>
    </mxGraphModel>
  </diagram>
</mxfile>
